# Blender 3.4.0
# www.blender.org
mtllib asteroid.mtl
o Cube
v -1.001054 -0.831688 0.912942
v -0.911416 0.879944 0.929277
v -0.718590 -0.835897 -0.839321
v -1.003963 0.849378 -0.956204
v 0.699092 -0.843133 1.017960
v 0.698046 0.816440 0.864408
v 0.976280 -0.872662 -0.738975
v 0.830576 0.885819 -0.902024
v -0.987034 -0.963971 -0.007921
v -1.187279 -0.005180 1.211810
v -1.286766 1.075969 -0.005462
v -1.006938 0.084243 -0.929868
v 0.189115 -0.990675 -0.901364
v -0.032889 0.972912 -1.246806
v 0.933831 -0.023966 -1.028734
v 1.129065 -1.046702 0.091057
v 0.960398 1.116890 -0.037133
v 0.820598 -0.062753 1.315593
v -0.081001 -1.057868 1.195978
v -0.023313 0.864706 0.910103
v -0.082373 1.392297 -0.317908
v 0.228982 -1.380306 0.127860
v -0.136099 -0.160110 1.573166
v 1.323298 -0.165508 0.360671
v -0.012345 0.155069 -1.509783
v -1.625604 0.021489 0.259319
v -1.048449 -0.915396 0.526536
v -1.061278 0.532015 1.133640
v -1.209739 0.983075 -0.583150
v -0.879478 -0.460705 -0.909525
v -0.339893 -0.950278 -0.920567
v 0.503668 0.965501 -1.106646
v 0.979900 -0.541459 -0.906772
v 1.124211 -1.003862 -0.397015
v 0.843241 1.008963 0.488318
v 0.766030 -0.533427 1.219159
v 0.384819 -0.976111 1.141393
v -0.515719 0.903547 0.944658
v -0.860325 -0.943909 -0.520861
v -1.160660 -0.508716 1.089352
v -1.123913 1.034316 0.564920
v -1.054047 0.557297 -0.965912
v 0.679720 -0.955019 -0.830114
v -0.609427 0.928145 -1.169645
v 0.898814 0.518640 -0.990613
v 0.923948 -0.964729 0.624991
v 0.947295 1.043756 -0.538898
v 0.781152 0.452746 1.140528
v -0.622655 -0.981990 1.076331
v 0.407495 0.854868 0.886802
v -0.047883 1.237444 0.308731
v -0.063888 1.268229 -0.849600
v 0.511010 1.372164 -0.247449
v -0.735295 1.315657 -0.212091
v 0.081687 -1.299270 0.699818
v 0.257971 -1.296682 -0.417560
v -0.396651 -1.263491 0.041709
v 0.759546 -1.291995 0.096172
v -0.687774 -0.097596 1.469790
v 0.377362 -0.113786 1.525050
v -0.152648 -0.659836 1.508296
v -0.069550 0.372477 1.358033
v 1.163260 -0.109328 0.931751
v 1.233014 -0.128164 -0.364741
v 1.304881 -0.687360 0.247086
v 1.220143 0.523405 0.225545
v 0.494961 0.088785 -1.417741
v -0.524038 0.139787 -1.333679
v 0.076789 -0.443424 -1.292628
v -0.032401 0.617085 -1.483843
v -1.415716 0.039781 -0.357713
v -1.531607 0.023805 0.799458
v -1.414412 -0.521988 0.125616
v -1.589258 0.603766 0.193896
v -1.432535 0.574884 -0.421921
v 0.485069 0.577984 -1.358948
v 1.073933 0.504755 0.768626
v -0.579172 0.441618 1.316989
v 0.575224 -1.206786 0.650078
v -0.620207 1.213316 0.404750
v 0.459210 1.211979 0.330925
v 0.525543 1.260385 -0.732183
v -0.705471 1.191442 -0.773745
v -0.511770 -1.192220 0.601630
v -0.333555 -1.208327 -0.493964
v 0.778483 -1.221431 -0.398100
v -0.703016 -0.601421 1.377185
v 0.344024 -0.595378 1.453035
v 0.393420 0.394255 1.313586
v 1.112186 -0.607144 0.804792
v 1.247596 -0.647172 -0.375471
v 1.156436 0.514942 -0.413202
v 0.572599 -0.474701 -1.204569
v -0.430627 -0.443144 -1.197563
v -0.570260 0.594127 -1.340659
v -1.222400 -0.505183 -0.438492
v -1.401625 -0.502754 0.658914
v -1.432301 0.595917 0.745021
vn -0.9467 0.0230 -0.3213
vn -0.8603 0.4498 -0.2400
vn -0.7986 0.2137 -0.5626
vn -0.8064 -0.0954 -0.5836
vn 0.1925 0.1209 -0.9738
vn 0.2359 0.5390 -0.8086
vn 0.6415 0.3967 -0.6566
vn 0.6739 0.0950 -0.7327
vn 0.9478 0.2031 0.2456
vn 0.8255 0.5110 0.2398
vn 0.6092 0.5631 0.5584
vn 0.7346 0.2679 0.6233
vn -0.1276 0.3851 0.9140
vn 0.0221 0.6256 0.7799
vn -0.2011 0.5591 0.8044
vn -0.3865 0.3227 0.8640
vn 0.1991 -0.9619 0.1876
vn 0.5578 -0.7721 0.3044
vn 0.4979 -0.6947 0.5191
vn 0.2059 -0.8517 0.4819
vn -0.0741 0.9672 0.2431
vn -0.3212 0.9227 0.2130
vn -0.0709 0.8592 0.5067
vn 0.1034 0.8473 0.5209
vn 0.3637 0.8931 0.2646
vn 0.0365 0.9622 0.2698
vn 0.0185 0.8404 0.5416
vn 0.1513 0.8550 0.4961
vn 0.5645 0.6751 -0.4750
vn 0.1334 0.7748 -0.6179
vn 0.0594 0.9731 -0.2226
vn 0.5365 0.8329 -0.1354
vn -0.1413 0.7891 -0.5977
vn -0.4455 0.6919 -0.5682
vn -0.4415 0.8709 -0.2160
vn -0.1424 0.9628 -0.2296
vn -0.4613 -0.8868 0.0276
vn -0.1905 -0.9780 0.0853
vn -0.2062 -0.9116 0.3556
vn -0.4713 -0.8482 0.2416
vn -0.3835 -0.8092 -0.4451
vn -0.0465 -0.8550 -0.5165
vn -0.1319 -0.9843 -0.1169
vn -0.4382 -0.8874 -0.1430
vn 0.1391 -0.8279 -0.5434
vn 0.3758 -0.7479 -0.5471
vn 0.5495 -0.8298 -0.0974
vn 0.1543 -0.9778 -0.1417
vn -0.2508 -0.6251 0.7391
vn -0.2419 -0.1170 0.9632
vn -0.5470 -0.1353 0.8261
vn -0.5059 -0.5981 0.6215
vn 0.4962 -0.5459 0.6752
vn 0.4964 -0.1619 0.8529
vn 0.1265 -0.1318 0.9832
vn 0.1969 -0.6083 0.7689
vn 0.3676 0.3474 0.8626
vn 0.2213 0.6592 0.7187
vn 0.0396 0.6705 0.7409
vn 0.0538 0.3682 0.9282
vn 0.7589 -0.5335 0.3734
vn 0.9349 -0.1066 0.3384
vn 0.7238 -0.2393 0.6472
vn 0.6100 -0.5881 0.5310
vn 0.8443 -0.2639 -0.4665
vn 0.8952 0.0343 -0.4442
vn 0.9955 0.0298 -0.0897
vn 0.9451 -0.3246 -0.0379
vn 0.9135 0.0787 -0.3992
vn 0.8828 0.2587 -0.3922
vn 0.9269 0.3626 -0.0972
vn 0.9854 0.1247 -0.1162
vn 0.1580 -0.5849 -0.7955
vn 0.1445 -0.3326 -0.9319
vn 0.5693 -0.1402 -0.8101
vn 0.3715 -0.4228 -0.8266
vn -0.3230 -0.4975 -0.8051
vn -0.5121 -0.2723 -0.8146
vn -0.1721 -0.3585 -0.9175
vn -0.0151 -0.5836 -0.8119
vn -0.6285 -0.1211 -0.7683
vn -0.6133 0.1311 -0.7789
vn -0.2382 0.5382 -0.8084
vn -0.3262 0.0389 -0.9445
vn -0.7727 -0.5975 -0.2143
vn -0.9076 -0.2750 -0.3171
vn -0.7820 -0.2049 -0.5887
vn -0.7677 -0.4198 -0.4841
vn -0.7010 -0.6744 0.2321
vn -0.8267 -0.3264 0.4583
vn -0.9285 -0.3696 0.0356
vn -0.7218 -0.6919 -0.0201
vn -0.7314 0.2631 0.6292
vn -0.5350 0.5872 0.6074
vn -0.7519 0.6205 0.2230
vn -0.9685 0.1841 0.1678
vn -0.9680 -0.0597 -0.2436
vn -0.8915 0.4134 -0.1853
vn -0.8386 0.1611 -0.5203
vn -0.8164 -0.1243 -0.5640
vn 0.2387 0.0648 -0.9689
vn 0.2220 0.5245 -0.8220
vn 0.5576 0.2912 -0.7774
vn 0.6696 0.1020 -0.7357
vn 0.9458 0.1929 0.2613
vn 0.8258 0.4872 0.2842
vn 0.6161 0.5789 0.5342
vn 0.7374 0.2716 0.6185
vn -0.0393 0.2798 0.9593
vn 0.1043 0.6640 0.7404
vn -0.0677 0.6317 0.7722
vn -0.3133 0.2083 0.9265
vn 0.1726 -0.9633 0.2056
vn 0.5265 -0.7864 0.3230
vn 0.5154 -0.6899 0.5084
vn 0.2081 -0.8519 0.4806
vn -0.0137 0.9860 0.1661
vn -0.2879 0.9456 0.1513
vn -0.1621 0.8711 0.4636
vn 0.0456 0.8703 0.4905
vn 0.3725 0.8852 0.2785
vn 0.0045 0.9708 0.2397
vn 0.0478 0.8499 0.5248
vn 0.2081 0.8140 0.5423
vn 0.5067 0.6627 -0.5515
vn 0.1627 0.7979 -0.5805
vn 0.0578 0.9727 -0.2250
vn 0.5130 0.8397 -0.1783
vn -0.1639 0.8026 -0.5735
vn -0.4866 0.7020 -0.5200
vn -0.4526 0.8690 -0.2001
vn -0.1490 0.9638 -0.2211
vn -0.4537 -0.8909 0.0201
vn -0.1946 -0.9769 0.0883
vn -0.2235 -0.9033 0.3662
vn -0.4539 -0.8492 0.2700
vn -0.3465 -0.8049 -0.4817
vn -0.0584 -0.8474 -0.5277
vn -0.1602 -0.9744 -0.1579
vn 0.1400 -0.8282 -0.5427
vn 0.4667 -0.7392 -0.4855
vn 0.5311 -0.8436 -0.0793
vn 0.1467 -0.9800 -0.1343
vn -0.2424 -0.6326 0.7355
vn -0.2002 -0.1713 0.9647
vn -0.4799 -0.2312 0.8463
vn -0.5114 -0.5926 0.6223
vn 0.4695 -0.5286 0.7072
vn 0.4373 -0.2289 0.8697
vn 0.1060 -0.1542 0.9823
vn 0.1645 -0.5904 0.7902
vn 0.3440 0.3254 0.8808
vn 0.1414 0.6189 0.7726
vn 0.0551 0.6777 0.7333
vn 0.0705 0.3814 0.9217
vn 0.7504 -0.5664 0.3407
vn 0.9447 -0.1687 0.2813
vn 0.7145 -0.2190 0.6644
vn 0.6072 -0.5210 0.5999
vn 0.8439 -0.2498 -0.4749
vn 0.9106 -0.0162 -0.4129
vn 0.9923 -0.0080 -0.1239
vn 0.9108 -0.3981 -0.1095
vn 0.9100 0.0872 -0.4054
vn 0.8826 0.2553 -0.3947
vn 0.9333 0.3511 -0.0756
vn 0.9889 0.1102 -0.1001
vn 0.1100 -0.5630 -0.8191
vn 0.1282 -0.3213 -0.9382
vn 0.6203 -0.2013 -0.7581
vn 0.4666 -0.4767 -0.7450
vn -0.4939 -0.3599 -0.7916
vn -0.6199 -0.1736 -0.7652
vn -0.3070 -0.2628 -0.9147
vn -0.1603 -0.4951 -0.8539
vn -0.6072 -0.0739 -0.7911
vn -0.4989 0.3479 -0.7938
vn -0.1526 0.4362 -0.8868
vn -0.2554 -0.0408 -0.9660
vn -0.7318 -0.6267 -0.2678
vn -0.9078 -0.2748 -0.3169
vn -0.7909 -0.1946 -0.5802
vn -0.6926 -0.4686 -0.5484
vn -0.7195 -0.5713 0.3949
vn -0.7600 -0.1912 0.6212
vn -0.9462 -0.2778 0.1659
vn -0.7524 -0.6574 0.0418
vn -0.6951 0.1867 0.6943
vn -0.5390 0.6154 0.5751
vn -0.7593 0.5963 0.2604
vn -0.9575 0.0905 0.2740
vt 0.125000 0.750000
vt 0.375000 1.000000
vt 0.375000 0.000000
vt 0.625000 1.000000
vt 0.875000 0.750000
vt 0.625000 0.000000
vt 0.125000 0.500000
vt 0.375000 0.250000
vt 0.875000 0.500000
vt 0.625000 0.250000
vt 0.375000 0.750000
vt 0.625000 0.750000
vt 0.375000 0.500000
vt 0.625000 0.500000
vt 0.125000 0.625000
vt 0.375000 0.125000
vt 0.500000 1.000000
vt 0.500000 0.000000
vt 0.875000 0.625000
vt 0.625000 0.125000
vt 0.500000 0.250000
vt 0.250000 0.500000
vt 0.375000 0.375000
vt 0.750000 0.500000
vt 0.625000 0.375000
vt 0.500000 0.500000
vt 0.375000 0.625000
vt 0.625000 0.625000
vt 0.500000 0.750000
vt 0.250000 0.750000
vt 0.375000 0.875000
vt 0.750000 0.750000
vt 0.625000 0.875000
vt 0.750000 0.625000
vt 0.250000 0.625000
vt 0.500000 0.875000
vt 0.500000 0.625000
vt 0.500000 0.375000
vt 0.500000 0.125000
vt 0.125000 0.687500
vt 0.375000 0.062500
vt 0.562500 1.000000
vt 0.562500 0.000000
vt 0.625000 0.187500
vt 0.875000 0.562500
vt 0.437500 0.250000
vt 0.187500 0.500000
vt 0.375000 0.312500
vt 0.625000 0.437500
vt 0.687500 0.500000
vt 0.437500 0.500000
vt 0.375000 0.562500
vt 0.625000 0.687500
vt 0.437500 0.750000
vt 0.312500 0.750000
vt 0.375000 0.812500
vt 0.625000 0.937500
vt 0.812500 0.750000
vt 0.125000 0.562500
vt 0.375000 0.187500
vt 0.437500 1.000000
vt 0.437500 0.000000
vt 0.875000 0.687500
vt 0.625000 0.062500
vt 0.562500 0.250000
vt 0.312500 0.500000
vt 0.375000 0.437500
vt 0.812500 0.500000
vt 0.625000 0.312500
vt 0.562500 0.500000
vt 0.375000 0.687500
vt 0.625000 0.562500
vt 0.562500 0.750000
vt 0.187500 0.750000
vt 0.375000 0.937500
vt 0.687500 0.750000
vt 0.625000 0.812500
vt 0.750000 0.687500
vt 0.750000 0.562500
vt 0.687500 0.625000
vt 0.812500 0.625000
vt 0.250000 0.687500
vt 0.250000 0.562500
vt 0.187500 0.625000
vt 0.312500 0.625000
vt 0.500000 0.937500
vt 0.500000 0.812500
vt 0.437500 0.875000
vt 0.562500 0.875000
vt 0.500000 0.687500
vt 0.500000 0.562500
vt 0.437500 0.625000
vt 0.562500 0.625000
vt 0.500000 0.437500
vt 0.500000 0.312500
vt 0.437500 0.375000
vt 0.562500 0.375000
vt 0.500000 0.187500
vt 0.500000 0.062500
vt 0.437500 0.125000
vt 0.562500 0.125000
vt 0.562500 0.187500
vt 0.562500 0.437500
vt 0.562500 0.687500
vt 0.562500 0.937500
vt 0.312500 0.687500
vt 0.812500 0.687500
vt 0.687500 0.687500
vt 0.687500 0.562500
vt 0.812500 0.562500
vt 0.187500 0.687500
vt 0.187500 0.562500
vt 0.312500 0.562500
vt 0.437500 0.937500
vt 0.437500 0.812500
vt 0.562500 0.812500
vt 0.437500 0.687500
vt 0.437500 0.562500
vt 0.562500 0.562500
vt 0.437500 0.437500
vt 0.437500 0.312500
vt 0.562500 0.312500
vt 0.437500 0.187500
vt 0.437500 0.062500
vt 0.562500 0.062500
s 0
usemtl Asteroid
f 74/101/1 71/98/1 26/39/1
f 11/20/2 75/102/2 74/101/2
f 29/44/3 42/65/3 75/102/3
f 75/102/4 12/21/4 71/98/4
f 25/38/5 76/103/5 67/94/5
f 14/25/6 76/103/6 70/97/6
f 32/49/7 45/70/7 76/103/7
f 67/94/8 45/70/8 15/26/8
f 24/37/9 77/104/9 63/90/9
f 66/93/10 35/53/10 77/104/10
f 77/104/11 6/12/11 48/73/11
f 63/90/12 48/73/12 18/29/12
f 62/89/13 59/86/13 23/36/13
f 62/89/14 38/57/14 78/105/14
f 78/105/15 2/4/15 28/42/15
f 78/105/16 10/17/16 59/86/16
f 22/35/17 79/106/17 55/82/17
f 58/85/18 46/71/18 79/106/18
f 79/106/19 5/11/19 37/55/19
f 55/82/20 37/55/20 19/30/20
f 54/81/21 51/78/21 21/34/21
f 11/19/22 80/107/22 54/81/22
f 80/107/23 2/5/23 38/58/23
f 51/78/24 38/58/24 20/32/24
f 17/28/25 81/108/25 35/53/25
f 53/80/26 51/78/26 81/108/26
f 51/78/27 50/76/27 81/108/27
f 35/53/28 50/76/28 6/12/28
f 8/14/29 82/109/29 47/72/29
f 32/50/30 52/79/30 82/109/30
f 82/109/31 21/34/31 53/80/31
f 47/72/32 53/80/32 17/28/32
f 44/68/33 52/79/33 14/24/33
f 4/9/34 83/110/34 44/68/34
f 29/45/35 54/81/35 83/110/35
f 83/110/36 21/34/36 52/79/36
f 9/15/37 84/111/37 27/40/37
f 57/84/38 55/82/38 84/111/38
f 84/111/39 19/30/39 49/74/39
f 84/111/40 1/1/40 27/40/40
f 3/7/41 85/112/41 39/59/41
f 13/22/42 85/112/42 31/47/42
f 56/83/43 57/84/43 85/112/43
f 39/59/44 57/84/44 9/15/44
f 43/66/45 56/83/45 13/22/45
f 7/13/46 86/113/46 43/66/46
f 86/113/47 16/27/47 58/85/47
f 56/83/48 58/85/48 22/35/48
f 61/88/49 49/75/49 19/31/49
f 23/36/50 87/114/50 61/88/50
f 59/86/51 40/61/51 87/114/51
f 87/114/52 1/2/52 49/75/52
f 36/54/53 37/56/53 5/11/53
f 36/54/54 60/87/54 88/115/54
f 88/115/55 23/36/55 61/88/55
f 88/115/56 19/31/56 37/56/56
f 18/29/57 89/116/57 60/87/57
f 48/73/58 50/77/58 89/116/58
f 89/116/59 20/33/59 62/89/59
f 60/87/60 62/89/60 23/36/60
f 65/92/61 46/71/61 16/27/61
f 24/37/62 90/117/62 65/92/62
f 63/90/63 36/54/63 90/117/63
f 90/117/64 5/11/64 46/71/64
f 7/13/65 91/118/65 34/52/65
f 33/51/66 64/91/66 91/118/66
f 64/91/67 65/92/67 91/118/67
f 91/118/68 16/27/68 34/52/68
f 15/26/69 92/119/69 64/91/69
f 8/14/70 92/119/70 45/70/70
f 92/119/71 17/28/71 66/93/71
f 64/91/72 66/93/72 24/37/72
f 13/23/73 93/120/73 43/67/73
f 69/96/74 67/94/74 93/120/74
f 93/120/75 15/26/75 33/51/75
f 43/67/76 33/51/76 7/13/76
f 3/8/77 94/121/77 31/48/77
f 30/46/78 68/95/78 94/121/78
f 94/121/79 25/38/79 69/96/79
f 31/48/80 69/96/80 13/23/80
f 42/65/81 68/95/81 12/21/81
f 4/10/82 95/122/82 42/65/82
f 95/122/83 14/25/83 70/97/83
f 68/95/84 70/97/84 25/38/84
f 9/16/85 96/123/85 39/60/85
f 73/100/86 71/98/86 96/123/86
f 96/123/87 12/21/87 30/46/87
f 39/60/88 30/46/88 3/8/88
f 1/3/89 97/124/89 27/41/89
f 40/62/90 72/99/90 97/124/90
f 97/124/91 26/39/91 73/100/91
f 27/41/92 73/100/92 9/16/92
f 28/43/93 72/99/93 10/18/93
f 2/6/94 98/125/94 28/43/94
f 41/64/95 74/101/95 98/125/95
f 98/125/96 26/39/96 72/99/96
f 74/101/97 75/102/97 71/98/97
f 11/20/98 29/44/98 75/102/98
f 29/44/99 4/10/99 42/65/99
f 75/102/100 42/65/100 12/21/100
f 25/38/101 70/97/101 76/103/101
f 14/25/102 32/49/102 76/103/102
f 32/49/103 8/14/103 45/70/103
f 67/94/104 76/103/104 45/70/104
f 24/37/105 66/93/105 77/104/105
f 66/93/106 17/28/106 35/53/106
f 77/104/107 35/53/107 6/12/107
f 63/90/108 77/104/108 48/73/108
f 62/89/109 78/105/109 59/86/109
f 62/89/110 20/33/110 38/57/110
f 78/105/111 38/57/111 2/4/111
f 78/105/112 28/42/112 10/17/112
f 22/35/113 58/85/113 79/106/113
f 58/85/114 16/27/114 46/71/114
f 79/106/115 46/71/115 5/11/115
f 55/82/116 79/106/116 37/55/116
f 54/81/117 80/107/117 51/78/117
f 11/19/118 41/63/118 80/107/118
f 80/107/119 41/63/119 2/5/119
f 51/78/120 80/107/120 38/58/120
f 17/28/121 53/80/121 81/108/121
f 53/80/122 21/34/122 51/78/122
f 51/78/123 20/32/123 50/76/123
f 35/53/124 81/108/124 50/76/124
f 8/14/125 32/50/125 82/109/125
f 32/50/126 14/24/126 52/79/126
f 82/109/127 52/79/127 21/34/127
f 47/72/128 82/109/128 53/80/128
f 44/68/129 83/110/129 52/79/129
f 4/9/130 29/45/130 83/110/130
f 29/45/131 11/19/131 54/81/131
f 83/110/132 54/81/132 21/34/132
f 9/15/133 57/84/133 84/111/133
f 57/84/134 22/35/134 55/82/134
f 84/111/135 55/82/135 19/30/135
f 84/111/136 49/74/136 1/1/136
f 3/7/137 31/47/137 85/112/137
f 13/22/138 56/83/138 85/112/138
f 56/83/139 22/35/139 57/84/139
f 39/59/44 85/112/44 57/84/44
f 43/66/140 86/113/140 56/83/140
f 7/13/141 34/52/141 86/113/141
f 86/113/142 34/52/142 16/27/142
f 56/83/143 86/113/143 58/85/143
f 61/88/144 87/114/144 49/75/144
f 23/36/145 59/86/145 87/114/145
f 59/86/146 10/17/146 40/61/146
f 87/114/147 40/61/147 1/2/147
f 36/54/148 88/115/148 37/56/148
f 36/54/149 18/29/149 60/87/149
f 88/115/150 60/87/150 23/36/150
f 88/115/151 61/88/151 19/31/151
f 18/29/152 48/73/152 89/116/152
f 48/73/153 6/12/153 50/77/153
f 89/116/154 50/77/154 20/33/154
f 60/87/155 89/116/155 62/89/155
f 65/92/156 90/117/156 46/71/156
f 24/37/157 63/90/157 90/117/157
f 63/90/158 18/29/158 36/54/158
f 90/117/159 36/54/159 5/11/159
f 7/13/160 33/51/160 91/118/160
f 33/51/161 15/26/161 64/91/161
f 64/91/162 24/37/162 65/92/162
f 91/118/163 65/92/163 16/27/163
f 15/26/164 45/70/164 92/119/164
f 8/14/165 47/72/165 92/119/165
f 92/119/166 47/72/166 17/28/166
f 64/91/167 92/119/167 66/93/167
f 13/23/168 69/96/168 93/120/168
f 69/96/169 25/38/169 67/94/169
f 93/120/170 67/94/170 15/26/170
f 43/67/171 93/120/171 33/51/171
f 3/8/172 30/46/172 94/121/172
f 30/46/173 12/21/173 68/95/173
f 94/121/174 68/95/174 25/38/174
f 31/48/175 94/121/175 69/96/175
f 42/65/176 95/122/176 68/95/176
f 4/10/177 44/69/177 95/122/177
f 95/122/178 44/69/178 14/25/178
f 68/95/179 95/122/179 70/97/179
f 9/16/180 73/100/180 96/123/180
f 73/100/181 26/39/181 71/98/181
f 96/123/182 71/98/182 12/21/182
f 39/60/183 96/123/183 30/46/183
f 1/3/184 40/62/184 97/124/184
f 40/62/185 10/18/185 72/99/185
f 97/124/186 72/99/186 26/39/186
f 27/41/187 97/124/187 73/100/187
f 28/43/188 98/125/188 72/99/188
f 2/6/189 41/64/189 98/125/189
f 41/64/190 11/20/190 74/101/190
f 98/125/191 74/101/191 26/39/191
